<?xml version="1.0" ?><!DOCTYPE svg  PUBLIC '-//W3C//DTD SVG 1.1//EN'  'http://www.w3.org/Graphics/SVG/1.1/DTD/svg11.dtd'><svg xmlns="http://www.w3.org/2000/svg" xmlns:xlink="http://www.w3.org/1999/xlink" xmlns:serif="http://www.serif.com/" width="100%" height="100%" viewBox="0 0 64 64" version="1.1" xml:space="preserve" style="fill-rule:evenodd;clip-rule:evenodd;stroke-linejoin:round;stroke-miterlimit:2;"><g transform="matrix(0.866025,0.5,-0.5,0.866025,27.6269,-16.9265)"><path d="M30,7.998C30,4.685 32.685,2 35.998,2L36.002,2C38.624,2 40.853,3.683 41.669,6.027C41.777,6.009 41.887,6 42,6C43.104,6 44,6.896 44,8L44,16C44,17.104 43.104,18 42,18L42,32.022C41.997,32.248 41.957,32.466 41.885,32.669L37.897,44.632C37.823,44.851 37.714,45.056 37.572,45.237C37.393,45.464 37.165,45.651 36.907,45.783C36.698,45.889 36.471,45.958 36.239,45.986C36.041,46.009 35.84,46.004 35.644,45.968C35.433,45.93 35.23,45.858 35.042,45.756C34.834,45.642 34.646,45.491 34.49,45.312C34.317,45.113 34.187,44.882 34.103,44.632L30.115,32.669C30.043,32.466 30.003,32.248 30,32.022L30,7.998ZM37.225,34L34.775,34L36,37.675L37.225,34ZM34,22L34,30L38,30L38,22L34,22ZM38,7.998C37.992,7.713 37.939,7.431 37.821,7.17C37.607,6.699 37.202,6.314 36.718,6.13C36.503,6.048 36.274,6.007 36.045,6.007C35.815,6.007 35.585,6.048 35.368,6.126C35.124,6.213 34.896,6.347 34.7,6.517C34.496,6.694 34.326,6.91 34.207,7.153C34.123,7.323 34.063,7.504 34.031,7.691C34.013,7.793 34.003,7.895 34,7.998L34,18L38,18L38,7.998Z"/></g><g><path d="M40.101,62L4,62C2.895,62 2,61.105 2,60L2,39.899C2,27.805 11.804,18 23.899,18L39.794,18L35.865,24.805C35.86,24.813 35.856,24.821 35.851,24.828C35.632,25.221 35.484,25.638 35.406,26.06C35.413,26.022 32.886,38.377 32.886,38.377C32.885,38.378 32.885,38.38 32.885,38.381C32.78,38.897 32.777,39.425 32.877,39.942C32.968,40.408 33.142,40.855 33.387,41.259C33.614,41.63 33.894,41.956 34.22,42.232C34.518,42.486 34.859,42.696 35.224,42.854C35.227,42.855 35.23,42.856 35.233,42.857C35.661,43.041 36.122,43.148 36.589,43.173C37.173,43.203 37.753,43.107 38.288,42.894C38.716,42.722 39.107,42.479 39.451,42.176C39.458,42.171 48.893,33.805 48.893,33.805C49.19,33.551 49.477,33.215 49.708,32.828C49.712,32.821 49.717,32.813 49.721,32.805L54.393,24.713C56.07,25.599 57.254,26.28 57.429,26.507C60.294,30.21 62,34.855 62,39.899L62,40.101C62,52.195 52.196,62 40.101,62ZM50,50C51.104,50 52,49.104 52,48C52,46.896 51.104,46 50,46L14,46C12.896,46 12,46.896 12,48C12,49.104 12.896,50 14,50L50,50ZM28,42C29.104,42 30,41.104 30,40C30,38.896 29.104,38 28,38L14,38C12.896,38 12,38.896 12,40C12,41.104 12.896,42 14,42L28,42ZM29,34C30.104,34 31,33.104 31,32C31,30.896 30.104,30 29,30L14,30C12.896,30 12,30.896 12,32C12,33.104 12.896,34 14,34L29,34Z"/></g></svg>