<?xml version="1.0" encoding="UTF-8"?>
<!DOCTYPE svg PUBLIC "-//W3C//DTD SVG 1.1//EN" "http://www.w3.org/Graphics/SVG/1.1/DTD/svg11.dtd">
<!-- Creator: CorelDRAW -->
<svg xmlns="http://www.w3.org/2000/svg" xml:space="preserve" width="2.66666in" height="2.66666in" version="1.1" style="shape-rendering:geometricPrecision; text-rendering:geometricPrecision; image-rendering:optimizeQuality; fill-rule:evenodd; clip-rule:evenodd"
viewBox="0 0 2667 2667"
 xmlns:xlink="http://www.w3.org/1999/xlink">
 <defs>
  <style type="text/css">
   <![CDATA[
    .fil1 {fill:white}
    .fil0 {fill:url(#id0)}
   ]]>
  </style>
  <linearGradient id="id0" gradientUnits="userSpaceOnUse" x1="1333.33" y1="0" x2="1333.33" y2="2666.66">
   <stop offset="0" style="stop-opacity:1; stop-color:#6666CC"/>
   <stop offset="0.509804" style="stop-opacity:1; stop-color:fuchsia"/>
   <stop offset="1" style="stop-opacity:1; stop-color:#FF6600"/>
  </linearGradient>
 </defs>
 <circle class="fil0" cx="1333" cy="1333" r="1333"/>
 <g id="Layer_x0020_1">
  <metadata id="CorelCorpID_0Corel-Layer"/>
  <path class="fil1" d="M1482 1510c-64,0 -97,-79 -52,-124 28,-28 75,-28 103,0 46,46 12,124 -51,124zm-824 360c-106,0 -117,-107 -117,-201 -14,14 -33,37 -53,17 -10,-11 -10,-27 0,-37 16,-16 60,-66 75,-69 8,-1 17,2 23,8l61 61c24,24 -13,60 -36,37l-18 -18c0,67 -2,151 65,151 90,0 163,-74 163,-164l0 -288c-75,-28 -57,-143 26,-143 83,0 101,115 26,143l0 288c0,119 -96,215 -215,215zm189 -594c-29,0 -29,45 0,44 29,0 29,-44 0,-44zm930 749c-11,0 -22,-5 -33,-16 -45,-47 -99,-237 -109,-317 -62,-9 -237,-38 -331,-118 -13,30 -37,72 -83,118 -9,9 -23,10 -34,2 -5,-4 -135,-104 -122,-305 -43,-42 -216,-219 -234,-445 0,0 -13,-240 55,-233 10,1 13,7 21,13 -4,-15 -13,-32 -1,-46 20,-24 52,-36 95,-36 160,0 465,180 549,262 187,-13 290,101 305,122 8,10 7,25 -2,34 -46,46 -88,70 -118,83 80,94 110,269 118,331 80,11 305,70 330,126 12,28 -11,47 -30,63 -78,62 -197,76 -249,80 -4,60 -23,200 -102,272 -7,7 -15,10 -25,10zm-485 -527c8,0 16,4 21,10 66,89 274,127 349,135 13,1 24,13 23,27 -2,51 58,253 92,298 73,-80 76,-247 76,-250 0,-14 12,-26 26,-26 3,0 171,-4 250,-77 -43,-32 -242,-94 -298,-91 -14,1 -26,-10 -27,-24 0,-2 -27,-269 -134,-349 -19,-14 -10,-43 13,-46 0,0 50,-6 116,-65 -44,-43 -133,-95 -257,-83 -8,0 -16,-3 -22,-9 -26,-30 -100,-82 -189,-132 -4,19 -10,38 -17,56 50,53 -2,137 -70,121 -34,44 -77,83 -123,113 17,77 -85,122 -130,59 -10,2 -20,5 -31,7 66,112 148,186 149,187 6,6 10,14 9,22 -14,139 51,224 83,256 83,-92 52,-139 91,-139zm-8 -708c-93,-49 -265,-126 -329,-87 16,59 3,82 -29,82 -10,0 -22,-4 -33,-10 -9,38 -14,116 -10,165 5,66 25,128 52,183 14,-2 28,-5 43,-8 6,-54 70,-83 114,-52 41,-26 79,-61 109,-99 -34,-50 5,-119 66,-114 7,-20 13,-40 17,-60zm-225 113c-67,0 -104,-83 -55,-133 30,-29 80,-29 110,0 49,50 12,133 -55,133zm0 -103c-22,0 -34,27 -18,43 23,24 60,-12 36,-36 -5,-5 -11,-7 -18,-7zm628 741c-63,0 -97,-79 -51,-125 45,-45 124,-12 124,52 0,39 -33,73 -73,73zm0 -94c-18,0 -28,23 -15,36 20,19 49,-11 30,-30 -4,-4 -9,-6 -15,-6zm-133 -155c-63,0 -97,-78 -51,-124 45,-45 124,-13 124,51 0,40 -33,73 -73,73zm0 -94c-18,0 -28,23 -15,36 20,20 49,-11 30,-29 -4,-4 -9,-7 -15,-7zm-245 267c-65,0 -97,-79 -52,-124 46,-46 124,-13 124,51 0,40 -33,73 -72,73zm0 -94c-19,0 -28,23 -15,36 19,19 48,-11 29,-30 -4,-4 -9,-6 -14,-6zm-20 -142c-64,0 -98,-78 -52,-124 46,-45 124,-13 124,52 0,39 -33,72 -72,72zm0 -93c-18,0 -28,22 -15,35 19,20 48,-10 30,-29 -4,-4 -10,-6 -15,-6zm-239 -34c-27,0 -27,41 0,41 27,0 27,-41 0,-41zm211 -201c-18,0 -28,23 -15,36 19,19 49,-10 30,-30 -4,-4 -9,-6 -15,-6zm224 203c-64,0 -97,-79 -51,-124 45,-46 124,-13 124,51 0,40 -33,73 -73,73zm0 -94c-18,0 -27,23 -15,36 20,19 49,-11 30,-30 -4,-4 -9,-6 -15,-6zm-3 406c-18,0 -28,23 -15,36 19,19 49,-10 30,-30 -4,-4 -10,-6 -15,-6z"/>
 </g>
</svg>
