<?xml version="1.0" encoding="UTF-8"?>
<!DOCTYPE svg PUBLIC "-//W3C//DTD SVG 1.1//EN" "http://www.w3.org/Graphics/SVG/1.1/DTD/svg11.dtd">
<!-- Creator: CorelDRAW -->
<svg xmlns="http://www.w3.org/2000/svg" xml:space="preserve" width="800px" height="800px" version="1.1" style="shape-rendering:geometricPrecision; text-rendering:geometricPrecision; image-rendering:optimizeQuality; fill-rule:evenodd; clip-rule:evenodd"
viewBox="0 0 800 800"
 xmlns:xlink="http://www.w3.org/1999/xlink">
 <defs>
  <style type="text/css">
   <![CDATA[
    .fil1 {fill:white}
    .fil0 {fill:url(#id0)}
   ]]>
  </style>
  <linearGradient id="id0" gradientUnits="userSpaceOnUse" x1="400" y1="0" x2="400" y2="800">
   <stop offset="0" style="stop-opacity:1; stop-color:#6666CC"/>
   <stop offset="0.509804" style="stop-opacity:1; stop-color:fuchsia"/>
   <stop offset="1" style="stop-opacity:1; stop-color:#FF6600"/>
  </linearGradient>
 </defs>
 <circle class="fil0" cx="400" cy="400" r="400"/>
 <g id="Layer_x0020_1">
  <metadata id="CorelCorpID_0Corel-Layer"/>
  <path class="fil1" d="M278 535c-10,0 -19,-6 -23,-15 -1,-2 -3,-5 -5,-10 -5,-12 -10,-23 -14,-31l0 28c0,14 -11,25 -25,25 -14,0 -26,-11 -26,-25l0 -65c0,-5 1,-10 4,-14 0,0 0,-1 1,-1l8 -14c-5,-6 -9,-14 -10,-23l-10 0 0 35c0,10 -9,16 -17,16 -8,0 -17,-6 -17,-16l0 -33c-2,-23 15,-33 25,-35 1,-1 2,-1 2,-1l26 0c9,-11 22,-17 36,-17l88 0 86 -95c2,-2 5,-3 7,-2 3,1 4,4 4,6l-2 18 37 23c0,1 1,1 1,2 1,1 8,13 3,22 0,1 0,2 -1,2 4,9 6,18 6,27 0,4 0,8 -1,12 32,1 66,1 100,1 5,0 94,24 95,45 0,6 -2,11 -6,15 -3,4 -8,7 -14,7 -1,0 -1,0 -2,0l-67 -22 0 32c0,5 -1,10 -3,15 0,1 1,1 1,2l25 67 6 2c6,2 10,6 12,11 3,5 3,10 1,15 -2,9 -10,14 -19,14 -2,0 -5,0 -7,-1l-15 -5c-6,-1 -11,-6 -13,-12 0,-1 0,-1 0,-1l-23 -61 -24 61c0,0 0,0 0,1 -2,6 -7,11 -14,12l-14 5c-2,1 -4,1 -7,1 -8,0 -16,-5 -19,-14 -2,-5 -2,-10 1,-15 2,-5 7,-9 12,-11l6 -2 25 -67c0,-1 1,-1 1,-2 -2,-5 -3,-10 -3,-15l0 -35 -60 -2c-11,8 -25,13 -40,13 -6,0 -13,-1 -19,-3l0 1 0 100c0,15 -12,26 -26,26 -14,0 -26,-11 -26,-26l0 -77 -44 0 -4 14 24 57c3,6 3,13 1,19 -3,7 -8,12 -14,14 -3,2 -6,2 -10,2zm168 -214c-3,1 -6,1 -9,1l-1 0c0,0 -1,0 -1,0l-23 -5c-2,7 -5,14 -8,23 -7,19 -15,39 -21,54 4,1 9,2 13,2 9,0 16,-2 23,-5 -1,-1 -2,-2 -4,-3 -3,-4 -5,-10 -5,-15 0,-11 9,-20 21,-20l0 0c6,0 12,1 18,1 1,-4 1,-8 1,-12 0,-7 -1,-14 -4,-21zm86 28c-21,0 -38,-17 -38,-38 0,-21 17,-38 38,-38 20,0 37,17 37,38 0,21 -17,38 -37,38z"/>
 </g>
</svg>
