<?xml version="1.0" ?><svg viewBox="0 0 24 24" xmlns="http://www.w3.org/2000/svg"><g data-name="8. Mail" id="_8._Mail"><path d="M16.067,13.6l7.685,6.587A2.968,2.968,0,0,0,24,19V8.549Z"/><path d="M12.538,13.473,23.892,6.247A3,3,0,0,0,21,4H3A3,3,0,0,0,.108,6.247l11.355,7.226A1.006,1.006,0,0,0,12.538,13.473Z"/><path d="M0,8.549V19a2.968,2.968,0,0,0,.248,1.185L7.933,13.6Z"/><path d="M14.314,14.714l-.7.447a3.016,3.016,0,0,1-3.221,0l-.7-.448c-.015.014-.021.033-.036.046L1.618,21.645A2.953,2.953,0,0,0,3,22H21a2.957,2.957,0,0,0,1.383-.355L14.35,14.759C14.334,14.746,14.328,14.727,14.314,14.714Z"/></g></svg>