<?xml version="1.0" encoding="UTF-8"?>
<!DOCTYPE svg PUBLIC "-//W3C//DTD SVG 1.1//EN" "http://www.w3.org/Graphics/SVG/1.1/DTD/svg11.dtd">
<!-- Creator: CorelDRAW -->
<svg xmlns="http://www.w3.org/2000/svg" xml:space="preserve" width="11.1111in" height="11.1111in" version="1.1" style="shape-rendering:geometricPrecision; text-rendering:geometricPrecision; image-rendering:optimizeQuality; fill-rule:evenodd; clip-rule:evenodd"
viewBox="0 0 11111 11111"
 xmlns:xlink="http://www.w3.org/1999/xlink">
 <defs>
  <style type="text/css">
   <![CDATA[
    .fil1 {fill:white}
    .fil0 {fill:url(#id0)}
   ]]>
  </style>
  <linearGradient id="id0" gradientUnits="userSpaceOnUse" x1="5555.56" y1="0.00787402" x2="5555.56" y2="11111.1">
   <stop offset="0" style="stop-opacity:1; stop-color:#6666CC"/>
   <stop offset="0.509804" style="stop-opacity:1; stop-color:fuchsia"/>
   <stop offset="1" style="stop-opacity:1; stop-color:#FF6600"/>
  </linearGradient>
 </defs>
 <circle class="fil0" cx="5556" cy="5556" r="5556"/>
 <g id="Layer_x0020_1">
  <metadata id="CorelCorpID_0Corel-Layer"/>
  <g>
   <path class="fil1" d="M5784 7092l2383 -906 -2574 0 198 282c75,107 21,256 -105,290l-1246 333c-1,1 -2,1 -4,1l1348 0zm-198 -1189c26,-151 125,-277 221,-399 144,-181 292,-369 259,-673 -2,-12 -8,-44 -13,-92 231,58 392,75 627,8 90,133 215,192 377,207 153,14 291,-56 385,-177 125,-161 161,-392 111,-587 -75,-290 -318,-439 -606,-459 -22,-1 -45,-3 -68,-3 -249,0 -390,163 -416,169 -100,-9 -200,-11 -300,-11l-18 0c48,-111 110,-207 187,-286 6,-7 39,-55 -14,-149 -19,-36 -41,-47 -71,-63 -144,-77 -134,-183 -61,-363 19,-52 61,-241 42,-335 -36,-173 37,-322 201,-407 218,-114 587,-95 788,116 97,102 226,330 5,713 -23,69 -41,162 -37,234 1,31 10,76 23,87 351,188 561,428 626,715 126,560 -318,1152 -643,1585 -45,59 -88,117 -127,170l-1478 0zm1460 -2862c5,-14 43,-79 61,-121 -207,-4 -460,-16 -694,-48 -14,102 -43,205 -49,220 -30,72 -38,107 -39,122 74,42 135,76 184,197 265,32 425,-58 486,-103 0,-116 46,-254 51,-267zm-467 4051l2004 -762 -737 762 -1267 0zm-2187 -88c-55,0 -99,-47 -95,-103l83 -935c3,-40 31,-73 70,-84l220 -59 -665 -2480 -220 59c-8,2 -16,4 -24,4 -31,0 -60,-15 -78,-41l-539 -769c-38,-54 -11,-129 53,-146l1245 -334c63,-17 124,35 119,100l-82 936c-4,40 -32,73 -70,83l-221 59 665 2480 220 -59c39,-10 79,5 102,37l539 770c38,53 11,129 -53,146l-1245 333c-8,2 -16,3 -24,3zm2703 -2142c-10,0 -20,0 -30,-1 -219,-20 -289,-134 -330,-202 -5,-8 -11,-18 -16,-25 -21,5 -35,14 -52,19 -432,128 -609,-68 -860,-32 -163,23 -439,64 -703,64 -175,0 -309,-18 -411,-55 -21,-6 -38,-11 -54,-14l-167 -624c49,6 98,10 146,5 378,-35 745,-47 1104,-23 266,17 472,-7 747,17 65,6 168,-170 410,-170 20,0 41,1 62,3 266,8 461,153 522,389 74,288 -79,649 -368,649zm1921 4136l-6921 0c-52,0 -95,-42 -95,-95l0 -1623c0,-52 43,-94 95,-94l6921 0c53,0 95,42 95,94l0 1623c0,53 -42,95 -95,95zm-1154 -1004c239,0 457,-268 659,-268 64,0 64,-96 0,-96 -238,0 -456,267 -659,267 -202,0 -420,-267 -659,-267 -238,0 -457,267 -659,267 -202,0 -420,-267 -659,-267 -238,0 -457,267 -659,267 -202,0 -420,-267 -659,-267 -239,0 -457,267 -659,267 -202,0 -421,-267 -659,-267 -239,0 -457,267 -659,267 -64,0 -64,97 0,97 238,0 457,-268 659,-268 202,0 420,268 659,268 238,0 457,-268 659,-268 202,0 420,268 659,268 239,0 457,-268 659,-268 202,0 421,268 659,268 239,0 457,-268 659,-268 203,0 421,268 659,268zm0 560c239,0 457,-268 659,-268 64,0 64,-96 0,-96 -238,0 -456,268 -659,268 -202,0 -420,-268 -659,-268 -238,0 -457,268 -659,268 -202,0 -420,-268 -659,-268 -238,0 -457,268 -659,268 -202,0 -420,-268 -659,-268 -239,0 -457,268 -659,268 -202,0 -421,-268 -659,-268 -239,0 -457,268 -659,268 -64,0 -64,96 0,96 238,0 457,-268 659,-268 202,0 420,268 659,268 238,0 457,-268 659,-268 202,0 420,268 659,268 239,0 457,-268 659,-268 202,0 421,268 659,268 239,0 457,-268 659,-268 203,0 421,268 659,268zm-3579 -2557l-1854 0c-84,0 -126,100 -69,160l905 935 1082 0c-89,-21 -151,-106 -143,-199l79 -896zm1501 1095l2383 -906 -2574 0 -133 -189 3223 0c104,0 131,146 33,183l-2399 912 -533 0zm-3438 -1048c-1,2 -1,3 -2,4l2 -4z"/>
  </g>
 </g>
</svg>
